<svg width="1600" height="980" viewBox="0 0 1600 980" fill="none" xmlns="http://www.w3.org/2000/svg"><rect width="1600" height="980" rx="36" fill="#0A1222"/><rect x="80" y="80" width="1440" height="820" rx="32" fill="#111B33" stroke="#253B68"/><rect x="150" y="150" width="360" height="540" rx="28" fill="#172441" stroke="#35518A"/><rect x="620" y="150" width="360" height="540" rx="28" fill="#172441" stroke="#35518A"/><rect x="1090" y="150" width="360" height="540" rx="28" fill="#172441" stroke="#35518A"/><rect x="190" y="220" width="280" height="220" rx="22" fill="#223459"/><rect x="660" y="220" width="280" height="220" rx="22" fill="#223459"/><rect x="1130" y="220" width="280" height="220" rx="22" fill="#223459"/><rect x="190" y="480" width="180" height="18" rx="9" fill="#38BDF8"/><rect x="190" y="512" width="140" height="12" rx="6" fill="#F59E0B"/><rect x="660" y="480" width="180" height="18" rx="9" fill="#38BDF8"/><rect x="660" y="512" width="140" height="12" rx="6" fill="#F59E0B"/><rect x="1130" y="480" width="180" height="18" rx="9" fill="#38BDF8"/><rect x="1130" y="512" width="140" height="12" rx="6" fill="#F59E0B"/><rect x="190" y="590" width="180" height="48" rx="24" fill="#38BDF8"/><rect x="660" y="590" width="180" height="48" rx="24" fill="#38BDF8"/><rect x="1130" y="590" width="180" height="48" rx="24" fill="#38BDF8"/></svg>